{
	"asset":{
		"generator":"Khronos glTF Blender I/O v5.0.21",
		"version":"2.0"
	},
	"scene":0,
	"scenes":[
		{
			"name":"Scene",
			"nodes":[
				0
			]
		}
	],
	"nodes":[
		{
			"mesh":0,
			"name":"Cube.004",
			"translation":[
				0,
				0,
				6.033985614776611
			]
		}
	],
	"materials":[
		{
			"doubleSided":true,
			"name":"logo",
			"pbrMetallicRoughness":{
				"baseColorFactor":[
					0.800000011920929,
					0.800000011920929,
					0.800000011920929,
					1
				],
				"metallicFactor":0
			}
		}
	],
	"meshes":[
		{
			"name":"Cube.006",
			"primitives":[
				{
					"attributes":{
						"POSITION":0,
						"NORMAL":1,
						"TEXCOORD_0":2
					},
					"indices":3,
					"material":0
				}
			]
		}
	],
	"accessors":[
		{
			"bufferView":0,
			"componentType":5126,
			"count":11812,
			"max":[
				1.0000001192092896,
				1.0000004768371582,
				1.0000004768371582
			],
			"min":[
				-1.0000001192092896,
				-1.000000238418579,
				-1.0000003576278687
			],
			"type":"VEC3"
		},
		{
			"bufferView":1,
			"componentType":5126,
			"count":11812,
			"type":"VEC3"
		},
		{
			"bufferView":2,
			"componentType":5126,
			"count":11812,
			"type":"VEC2"
		},
		{
			"bufferView":3,
			"componentType":5123,
			"count":68256,
			"type":"SCALAR"
		}
	],
	"bufferViews":[
		{
			"buffer":0,
			"byteLength":141744,
			"byteOffset":0,
			"target":34962
		},
		{
			"buffer":0,
			"byteLength":141744,
			"byteOffset":141744,
			"target":34962
		},
		{
			"buffer":0,
			"byteLength":94496,
			"byteOffset":283488,
			"target":34962
		},
		{
			"buffer":0,
			"byteLength":136512,
			"byteOffset":377984,
			"target":34963
		}
	],
	"buffers":[
		{
			"byteLength":514496,
			"uri":"logo.bin"
		}
	]
}
